<?xml version="1.0" encoding="UTF-8"?><svg id="Camada_1" xmlns="http://www.w3.org/2000/svg" viewBox="0 0 520.83 153.2"><defs><style>.cls-1{fill:#fff;}</style></defs><path class="cls-1" d="m61.3,153.2c-6.12.06-12.11-.64-18.07-2.04-3.57-.84-5.96-2.98-7.99-5.73-4.38-5.92-8.74-11.85-13-17.86-1.89-2.67-3.65-5.46-5.23-8.33-2.38-4.32-1.02-6.57,2.84-8.94,3.36-2.07,6.84-3.95,10.23-5.96.67-.4,1.25-.97,1.8-1.53,1.73-1.78,2.92-2.19,4.33-1.41,1.58.88,2.7,3.27,2.14,5.06-.37,1.19-1.04,2.32-1.7,3.39-.45.74-1.09,1.37-1.71,1.99-1.62,1.61-1.67,3.36-.72,5.34,1.77,3.71,3.53,7.43,5.18,11.2,1.27,2.89,2.26,5.9,3.58,8.76.81,1.76,1.99,3.42,4.02,3.97,1.58.43,2.34-.07,2.82-1.65.49-1.64,1.02-3.3,1.25-4.99.68-4.99,1.29-10.02.86-15.06-.32-3.76-1.03-7.49-1.55-11.24-1.05-7.62-2.07-15.25-3.16-22.87-.43-3-1.01-5.98-1.51-8.97-.57-3.4-1.18-6.8-1.69-10.21-.73-4.88-1.31-9.79-2.09-14.66-.33-2.1-1-4.14-1.49-6.22-.17-.73-.29-1.46-.41-2.2-.68-4.05-1.34-8.1-2.04-12.14-.12-.69-.42-1.34-.64-2.01-.61-1.88-.79-3.81.81-5.23,1.65-1.46,3.65-2.11,5.91-1.39,2.84.9,5.65,1.89,8.54,2.6,1.4.34,2.59.83,3.57,1.85.95.99,1.35,2.13,1.12,3.53-.69,4.28-.95,8.56-.58,12.92.5,5.79.71,11.62.96,17.43.18,4.2.2,8.41.3,12.62.02.62.04,1.27.2,1.86.84,2.99.46,6.03.53,9.06.14,5.78.48,11.56.71,17.34.04,1.11-.09,2.23-.12,3.35-.03,1.41-.11,2.83-.03,4.23.19,3.32.56,6.63.67,9.94.15,4.74-.21,9.48.76,14.19.27,1.3-.06,2.73-.18,4.09-.18,2.03-.3,4.08,1.55,5.47.66.5,1.6.94,2.38.89,3.89-.25,7.83-.37,11.45-2.11.94-.45,1.91-.86,2.74-1.48,5.49-4.09,10.24-8.89,13.75-14.81,1.16-1.95,1.97-4.1,2.99-6.14.91-1.81,1.93-3.56,2.81-5.38,1.21-2.5,2.3-5.06,3.48-7.58,1.11-2.36,2.35-4.67,3.38-7.06,1.72-4.03,3.31-8.12,4.97-12.18,1.6-3.91,3.5-7.73,4.75-11.75.86-2.77.83-5.82-.36-8.65-1.45-3.48-2.69-7.08-4.48-10.38-1.93-3.55-3.64-7.26-6.53-10.26-2.56-2.66-4.78-5.64-7.16-8.48-.43-.51-.82-1.06-1.31-1.5-3.72-3.34-7.43-6.69-11.2-9.97-2.78-2.42-6.16-3.74-9.62-4.83-7.2-2.26-14.39-4.58-21.64-6.68-2.24-.65-4.49-1.32-6.92-1.41-1.97-.07-3.92-.94-5.88-1.44-.67-.17-1.35-.32-2.03-.46-1.83-.36-3.66-.71-5.5-1.06-3.77-.74-5.4,0-7.34,3.32-1.21,2.08-2.39,4.19-3.61,6.26-.53.9-1.07,1.79-1.7,2.61-2.69,3.54-6.62,4.11-10.28,1.59-1.26-.87-2.76-1.43-3.92-2.4-1.77-1.48-3.51-3.05-4.91-4.86-.59-.77-.31-2.23-.35-3.38,0-.2.31-.48.54-.61,4.27-2.55,7.83-5.85,10.94-9.73C12.98.99,14.94-.17,17.58.02c2.78.2,5.58-.02,8.37.08,1.27.04,2.52.47,3.79.63,1.69.2,3.4.2,5.07.48,3.93.66,7.86,1.35,11.75,2.17,6.34,1.33,12.69,2.65,18.98,4.21,7.67,1.91,15.03,4.74,22.41,7.58,7.34,2.82,12.66,8.03,17.9,13.45,3.64,3.77,7.19,7.64,10.53,11.67,2.53,3.06,4.87,6.33,6.9,9.74,1.62,2.73,3.3,5.37,5.4,7.73,2.2,2.47,2.32,5.23,1.76,8.39-1,5.63-3.44,10.62-5.87,15.69-3.02,6.29-5.77,12.7-8.64,19.05-.62,1.36-1.31,2.69-1.94,4.05-1.65,3.58-3.07,7.29-4.96,10.73-3.3,6.01-6.82,11.9-10.4,17.75-1.31,2.14-3.06,4.03-4.64,6-1.04,1.3-2.11,2.58-3.24,3.8-.66.72-1.46,1.31-2.2,1.97-.34.3-.76.55-1.01.91-2.22,3.16-5.67,4.1-9.11,4.93-2.98.72-6,1.32-9.03,1.71-2.67.34-5.39.32-8.09.45Z"/><path class="cls-1" d="m393.9,134.33c-1.76,2.07-3.45,3.8-4.82,5.75-1.79,2.55-3.32,5.28-4.99,7.91-.4.63-.87,1.22-1.36,1.79-1.06,1.23-2.25,2.03-4.02,1.58-.99-.25-2.08-.14-3.09-.34-.62-.12-1.3-.39-1.75-.82-5.19-4.9-11.3-8.63-16.7-13.25-1.89-1.61-3.64-3.4-5.29-5.26-.57-.64-.74-1.72-.87-2.63-.83-5.61,2.02-10.12,4.53-14.71,3.03-5.54,6.42-10.9,9.09-16.6,1.35-2.88,3.64-2.72,5.8-3.13,2.35-.45,4.8-.41,7.21-.55.8-.05,2.97-1.51,3.17-2.23.05-.17-.03-.4-.09-.59-1.15-3.45-2.89-6.83-3.34-10.37-.92-7.25-3.69-13.96-5.34-20.98-1.18-5.01-2.58-9.97-3.86-14.96-.45-1.74-.74-3.53-1.22-5.26-.73-2.62-.39-5.22.08-7.79.21-1.16.77-2.26,1.26-3.35,2.21-4.96,5.4-9.24,9.17-13.11.5-.51,1.05-1.18,1.68-1.32,1.61-.35,2.6.89,2.89,2.6.99,5.9-.03,11.78,0,17.67.02,3.32.42,6.64.83,9.94.51,4.08,1.22,8.13,1.82,12.19.46,3.11.85,6.23,1.33,9.33.1.68.56,1.3.69,1.97.47,2.54.86,5.09,1.3,7.64.08.44.18.88.33,1.31.1.31.4.59.42.89.13,1.98.72,3.86,1.19,5.77.65,2.59,1.1,5.24,1.69,7.85.77,3.43,1.55,6.87,2.41,10.28.44,1.75,1.13,3.43,1.6,5.18.52,1.94.89,3.93,1.36,5.89.34,1.39.55,2.85,1.13,4.14,1.33,2.95,2.19,6.03,2.94,9.16.54,2.27,1.21,4.53,2.05,6.7.5,1.29,1.47,2.4,2.21,3.6.74,1.2,1.58,2.36,2.17,3.64,1.2,2.6.09,4.82-1.74,6.53-1.76,1.64-3.93,2.78-6.52,2.68-1.67-.07-2.82-1.52-2.42-3.16.16-.64.37-1.29.66-1.88.84-1.66.87-3.32-.13-4.87-1-1.56-2.15-3.03-3.44-4.83Zm-32.23-9.03c.12.02.24.05.36.07-.44,2.45.82,4.14,2.42,5.71,2.19,2.16,4.33,4.38,6.52,6.54,1.21,1.19,2.38,2.48,3.76,3.44,2.47,1.71,3.83,1.42,5.78-.87.29-.35.5-.76.78-1.13.81-1.05,1.51-2.23,2.48-3.1,2.83-2.54,4.82-5.71,6.9-8.82.66-.99.98-2.1.62-3.32-1.66-5.57-3.32-11.14-4.99-16.7-.1-.34-.28-.79-.56-.93-.87-.45-1.79-.8-2.71-1.14-1.74-.64-3.46-1.39-5.25-1.82-1.08-.26-2.29-.1-3.42.05-.86.11-1.69.49-2.53.77-.28.09-.67.18-.8.4-1.09,1.86-2.24,3.69-3.17,5.63-1.68,3.52-3.29,7.08-4.81,10.67-.61,1.45-.93,3.03-1.38,4.55Z"/><path class="cls-1" d="m185.96,128.79c-.66,2.34.59,3.91,2.2,5.29,2.66,2.27,5.33,4.51,8.02,6.74,1.13.94,2.22,1.07,3.57.14,4.66-3.2,9.43-6.24,14.09-9.44.78-.54,1.38-1.51,1.76-2.42,1.14-2.72,2.15-5.49,3.17-8.25.92-2.51,1.47-5.02-.24-7.48-.5-.71-.85-1.52-1.27-2.29-1.13-2.08-2.38-2.6-4.69-1.86-.78.25-1.62.55-2.24,1.05-3.86,3.14-8.37,5.48-11.63,9.37-.64.76-3.52.47-4.69-.22-3.89-2.31-6.17-6.12-8.98-9.44-1.8-2.13-3.49-4.36-5.44-6.34-1.44-1.47-1.67-2.98-1.32-4.89.55-3.01,2.36-5.22,4.18-7.52,3.59-4.52,8.04-8.05,12.6-11.47,3.41-2.55,7.06-4.69,11.03-6.23,1.9-.74,3.64-.85,5.49.51,4.87,3.6,9,7.76,11.47,13.38.23.53.63.97.94,1.46.43.67.17,1.27-.49,1.33-.95.08-2.03.1-2.87-.27-3.65-1.59-6.57-4.22-9.39-6.97-.64-.63-1.48-1.08-2.28-1.5-.27-.14-.79-.04-1.07.14-1.42.94-2.79,1.93-4.18,2.92-2.13,1.51-4.27,3.02-6.39,4.56-.25.18-.4.51-.59.78-.4.58-.68,1.3-1.2,1.74-2.17,1.84-2.96,4.35-3.5,6.98-.12.58-.17,1.32.08,1.81,1.32,2.64,2.97,5,5.71,6.41.7.36,1.27.41,1.97.02,4.87-2.69,9.75-5.35,14.63-8.02.55-.3,1.09-.61,1.6-.96,1.39-.96,2.72-1.04,3.75.28,1.87,2.38,3.67,4.83,5.19,7.44,2.01,3.44,3.72,7.05,5.54,10.6.76,1.48,1.57,2.95,2.13,4.5.22.62.02,1.56-.3,2.18-1.46,2.8-3.03,5.54-4.58,8.29-1.34,2.39-2.76,4.74-4.03,7.17-.87,1.67-2.17,2.81-3.78,3.67-1.06.57-2.15,1.09-3.24,1.61-3.63,1.74-7.25,3.51-10.91,5.18-1.23.56-2.59.84-3.89,1.24-1.5.46-2.99.99-4.52,1.35-.59.14-1.39.11-1.9-.18-6.06-3.39-11.2-7.92-15.66-13.21-1.43-1.7-2.62-3.67-3.59-5.67-.4-.83-.27-2.24.18-3.09,1.05-1.96,2.36-3.8,3.72-5.57.92-1.2,2.27-.98,3.56-.54,1.44.49,2.11,1.57,2.24,3,.08.87.01,1.75.01,2.62Z"/><path class="cls-1" d="m237.91,104.59c.18-2.03-.37-3.55,1.01-4.61.05-.04.06-.16.05-.24-.33-2.38.49-4.6,1.07-6.83.66-2.56,1.45-5.1,2.29-7.61,2.19-6.54,5.53-12.54,8.86-18.53,1.18-2.12,2.88-3.9,5.03-5.11.69-.39,1.56-.51,2.37-.59,3.18-.31,5.93.32,8.72,2.31,4.73,3.37,8.67,7.52,12.85,11.45,3.81,3.58,7.03,7.55,9.25,12.29.79,1.69,1.46,3.43,2.13,5.17.14.36.19.84.09,1.21-.8,3.07-1.3,6.18-1.82,9.3-.47,2.8-1.4,5.54-2.32,8.24-2.47,7.3-6.43,13.86-10.65,20.24-1.33,2.01-3.28,3.65-5.09,5.29-.45.41-1.68.48-2.25.16-5.51-3.1-10.83-6.45-15.84-10.37-4.37-3.42-7.48-7.91-11.3-11.77-1.77-1.8-2.81-4.39-3.91-6.75-.53-1.15-.45-2.59-.54-3.24Zm43.26-6.03c-.26-.93-.53-2.26-1.01-3.5-.6-1.56-1.18-3.19-2.11-4.56-1.73-2.54-3.66-4.95-5.59-7.35-.83-1.03-1.75-2.03-2.8-2.82-1.31-.99-2.82-1.73-4.21-2.62-2.41-1.54-5.97-.67-7.18,1.88-1.19,2.5-2.32,5.05-3.31,7.63-1.51,3.95-2.89,7.95-4.32,11.93-.43,1.21-.72,2.48-1.27,3.62-.6,1.24-.64,2.39.04,3.54.65,1.11,1.34,2.2,2.09,3.24,1.64,2.24,3.15,4.6,5.04,6.61,2.76,2.93,5.8,5.6,8.74,8.37.26.24.64.5.96.49,3.25-.02,3.74.75,5.07-2.57.05-.11.13-.21.19-.32,2.07-3.59,4.19-7.15,6.2-10.77,2.14-3.84,2.91-8.08,3.46-12.82Z"/><path class="cls-1" d="m433.98,54.24c4.35,2.74,8.04,5.95,11.55,9.41,2.78,2.75,5.65,5.42,8.65,7.93,3.06,2.56,5.8,5.36,8.21,8.53.9,1.19,2.02,2.21,2.96,3.37.61.76,1.36,1.57,1.56,2.46.39,1.73-1.31,3.63-3.18,3.68-1.91.05-3.85.1-5.74-.13-4.43-.55-8.82-.14-13.22.19-3.94.29-7.87.7-11.8,1.14-3.13.35-6.24.82-9.32,1.24-.35,3.01-.09,5.73,1.6,8.22,2.3,3.4,4.43,6.93,6.85,10.25.86,1.18,2.32,1.93,3.53,2.84.82.62,1.69,1.19,2.5,1.75,4.89-1.81,9.56-4.11,13.39-7.84,1.08-1.05,1.97-2.06,2.05-3.79.09-2.24,3.13-4.54,5.33-4.41,2.45.15,3.72,1.74,2.93,4.06-1.26,3.73-2.58,7.39-5.67,10.22-4.23,3.88-8.17,8.08-12.24,12.14-2.03,2.03-5.06,2.5-7.59,1.02-4-2.33-7.88-4.82-10.87-8.47-.8-.98-1.93-1.68-2.91-2.51-.44-.38-.93-.71-1.32-1.14-2.25-2.45-4.65-4.78-6.66-7.42-2.61-3.43-4.95-7.07-7.29-10.7-.59-.91-.75-2.1-1.07-3.18-.51-1.74-.24-3.28.92-4.79,2.2-2.87,4.46-5.73,6.31-8.83,2.83-4.74,6.74-8.63,9.9-13.1,2.16-3.05,4.63-5.88,7.05-8.72,1.04-1.23,2.33-2.25,3.56-3.42Zm14.93,28.61c0-.9.21-1.68-.04-2.27-.62-1.48-1.38-2.91-2.19-4.29-2.45-4.18-5.88-7.41-9.9-10.03-.74-.48-1.72-1-2.51-.16-1.79,1.91-3.65,3.79-5.21,5.88-3.07,4.11-4.95,8.89-7.07,13.52-.33.72-.17,1.25.8,1.12.29-.04.57-.11.86-.17,5.93-1.08,11.84-2.24,17.79-3.18,2.41-.38,4.89-.28,7.47-.41Z"/><path class="cls-1" d="m493.39,86.16c.34-.18.7-.34,1.03-.53,1.8-1.04,3.79-1.85,5.33-3.18,1.62-1.4,3.76-1.05,5.37-2.19.12-.09.38-.16.47-.1,1.73,1.15,4.16.59,5.51,2.96,3.19,5.6,6.61,11.06,9.23,16.97.88,1.99.63,3.54-.84,4.83-2.44,2.13-4.95,4.2-7.58,6.08-1.81,1.29-3.29.48-3.82-1.7-.76-3.19-1.4-6.42-2.44-9.51-.65-1.92-1.96-3.62-2.99-5.41-.11-.19-.41-.39-.61-.38-1.54.07-3.16-.35-4.57.68-3.03,2.21-6.12,4.32-9.07,6.64-.99.78-1.77,1.97-2.34,3.12-1.08,2.19-1.94,4.49-2.89,6.74-.06.15-.14.3-.17.46-.72,2.89-1.36,5.81-2.17,8.67-.52,1.87-.79,3.7-.63,5.65.25,3.07.33,6.15.52,9.23.15,2.48,1.53,4.35,3.44,5.69,1.1.77,2.62.93,3.93,1.44.8.31,1.26.92,1.17,1.85-.09.94-.58,1.53-1.44,1.85-.23.09-.48.16-.72.19-1.36.2-2.72.38-4.08.57-1.84.25-3.45-.38-4.92-1.41-.92-.64-1.85-1.3-2.66-2.07-2.15-2.06-4.79-3.12-7.57-3.91-3.13-.89-4.05-3.16-2.38-5.91,2.85-4.7,5.4-9.53,6.56-14.99.34-1.61,1.15-3.11,1.69-4.68,1.01-2.9,1.77-5.91,3.02-8.7,1.55-3.47,2.8-6.96,3.4-10.73.32-2.03,1.43-3.95,1.63-5.98.27-2.76.83-5.62-.49-8.32-.31-.63-.59-1.29-.81-1.96-.73-2.17.47-4.56,2.72-4.89,3.29-.48,6.56-.38,9.53,1.49,1.52.96,2.34,2.1,2.3,4.05-.05,2.57-.62,4.92-1.93,7.12.1.09.19.18.29.27Z"/><path class="cls-1" d="m319.11,94.61c2.25-1.03,4.24-2.03,6.3-2.85,2.16-.86,4.38-1.56,6.6-2.27,5.11-1.64,7.68,2.28,7.96,5.83,0,.04,0,.08,0,.12-.67,4.49,1.03,8.46,2.64,12.47.65,1.64,1.18,3.41,1.31,5.15.21,2.72-1.67,4.83-4.38,4.93-1.53.06-2.7.63-3.89,1.38-.49.31-.99.61-1.48.93-1.51.98-2.41,1-3.63.05-1.34-1.05-2.11-2.9-1.33-4.2,1.05-1.76.99-3.6.74-5.42-.49-3.62-1.21-7.2-1.8-10.8-.16-.94-.66-1.13-1.5-.9-3.13.85-6.15,1.98-9.03,3.51-1.77.94-2.87,2.29-3.44,4.18-.41,1.34-.89,2.67-1.4,3.98-2.23,5.81-3.21,11.93-4.62,17.95-.67,2.88.17,5.71.69,8.53.29,1.6.85,3.15,1.34,4.89.27,0,.68,0,1.09,0,2.04,0,4.08.02,6.12,0,1.15-.02,2.03.46,2.28,1.54.24,1.06-.53,1.79-1.41,2.27-1.27.69-2.57,1.32-3.88,1.94-.29.14-.63.24-.95.24-4.27.01-8.55.13-12.81-.07-1.51-.07-2.97-.96-4.45-1.49-.31-.11-.58-.31-.89-.43-1.52-.58-1.83-1.79-.69-2.98.89-.93,1.9-1.75,2.77-2.7.33-.36.56-.92.63-1.41.32-2.22.59-4.45.83-6.68.17-1.57.49-3.16.35-4.7-.33-3.76.5-7.39,1.11-11.02.65-3.86,1.83-7.64,2.61-11.48.51-2.54.77-5.13,1.06-7.7.05-.48-.23-1.03-.44-1.5-.55-1.21-1.13-2.41-1.73-3.59-.94-1.84-.35-3.44.9-4.81,1.36-1.49,3.05-2.45,5.15-2.41,1.33.02,2.66.09,3.84-.74.29-.2.7-.25,1.07-.31,1.77-.27,3.43-.67,5.03-1.62,1.64-.98,3.11.03,4.34,1.22,1.03,1.01,1.14,1.92.38,3.53-.96,2.02-1.98,4.02-2.94,6.04-.19.39-.27.84-.45,1.41Z"/><path class="cls-1" d="m146.98,128.45c-.42-4.55.5-10.15,1.08-15.78.66-6.41,1.1-12.84,1.6-19.26.07-.86-.03-1.75-.18-2.6-.32-1.85-1.35-3.09-3.25-3.5-.77-.17-1.6-.23-2.29-.56-.63-.3-1.43-.8-1.59-1.37-.12-.46.53-1.21.97-1.72.31-.36.81-.61,1.27-.77,1.6-.56,3.22-1.09,4.85-1.58,2.12-.64,4.24-1.34,6.39-1.84,3.01-.7,6.06-1.27,9.1-1.86,1.18-.23,2.37-.43,3.56-.57.61-.07,1.25-.03,1.86.08,1.04.18,1.48.74,1.46,1.92-.04,2.02-.75,3.46-2.53,4.52-1.34.8-2.59,1.82-3.73,2.91-3.22,3.1-4.61,6.93-4.82,11.4-.11,2.43-1.08,4.8-1.53,7.23-.32,1.75-.49,3.54-.61,5.32-.35,5.23-.71,10.46-.93,15.7-.12,2.95.04,5.91.08,8.87.05,3.47,1.24,6.58,3.04,9.48.74,1.2,1.55,2.37,2.35,3.53.61.89.55,1.75-.16,2.5-.69.73-1.43.35-2.15-.08-3.45-2.09-6.93-4.12-10.35-6.25-2.35-1.46-3.34-3.78-3.46-6.42-.12-2.7-.03-5.42-.03-9.27Z"/><path class="cls-1" d="m165.89,46.6c.03.15.1.29.06.38-1.3,2.67-.84,5.63-1.44,8.41-.7,3.28-1.38,6.57-2.03,9.87-.19.94-.24,1.91-.35,2.87-.01.12-.04.25-.08.36-.59,1.55-3.54,3.46-5.21,3.61-1.12.1-2.22.5-3.32.82-.94.27-1.87.57-2.77.95-1.1.45-2.15,0-2.53-1.25-.69-2.25-1.44-4.48-1.94-6.77-.21-.94-.09-2.14.34-2.98,1.33-2.63,3.35-4.74,5.62-6.6.19-.16.44-.27.58-.47,2.86-4.07,7.08-6.27,11.4-8.36.55-.27,1.1-.55,1.67-.84Z"/></svg>